<?xml version="1.0" encoding="iso-8859-1"?>
<!-- Uploaded to: SVG Repo, www.svgrepo.com, Transformed by: SVG Repo Mixer Tools -->
<svg version="1.1" id="Layer_1" xmlns="http://www.w3.org/2000/svg" xmlns:xlink="http://www.w3.org/1999/xlink" 
	 viewBox="0 0 512 512" xml:space="preserve">
<rect x="63.981" y="358.876" style="fill:#808080;" width="16.953" height="118.864"/>
<g>
	<polyline style="fill:#4A6F93;" points="126.576,208.207 105.011,156.252 150.796,45.491 260.392,0 371.153,45.785 
		416.644,155.381 394.876,208.049 	"/>
	<path style="fill:#4A6F93;" d="M384.017,420.137V512H137.631v-91.863c0-34.279,24.673-62.794,57.223-68.751
		c4.114-0.757,8.352-1.153,12.681-1.153h106.59c4.329,0,8.556,0.396,12.67,1.153C359.345,357.342,384.017,385.857,384.017,420.137z"
		/>
</g>
<g>
	<rect x="252.353" y="393.901" style="fill:#3D5F7A;" width="16.953" height="118.096"/>
	<path style="fill:#3D5F7A;" d="M326.795,351.386l-15.665,86.732l-50.306-30.086l-50.294,30.086l-15.676-86.732
		c4.114-0.757,8.352-1.153,12.681-1.153h106.59C318.454,350.233,322.681,350.629,326.795,351.386z"/>
	<path style="fill:#3D5F7A;" d="M250.596,350.233c-38.597,0-69.892,31.296-69.892,69.904V512h-43.072v-91.863
		c0-38.608,31.296-69.904,69.904-69.904H250.596z"/>
</g>
<path style="fill:#E0B394;" d="M310.697,246.204v103.921c0,27.542-22.331,49.873-49.873,49.873
	c-27.55,0-49.873-22.331-49.873-49.873V232.643"/>
<g>
	<circle style="fill:#F9C573;" cx="239.141" cy="450.411" r="7.911"/>
	<circle style="fill:#F9C573;" cx="239.141" cy="483.188" r="7.911"/>
</g>
<path style="fill:#F7CBA4;" d="M222.68,369.243l-46.394-33.707c-24.517-17.812-37.78-47.268-34.865-77.432l8.047-83.272
	c5.543-57.353,53.738-95.464,111.357-95.464l0,0c57.619,0,105.815,38.112,111.357,95.464l8.047,83.272
	c2.915,30.164-10.347,59.619-34.865,77.432l-46.394,33.707C276.224,385.768,245.425,385.768,222.68,369.243z"/>
<polygon style="fill:#F95428;" points="131.345,336.892 101.903,387.887 43.019,387.887 42.137,386.373 13.577,336.892 
	43.019,285.908 101.903,285.908 "/>
<polygon style="fill:#FC846D;" points="89.595,285.908 42.137,386.373 13.577,336.892 43.019,285.908 "/>
<g>
	<path style="fill:#E0B394;" d="M141.683,255.267c-14.015-0.622-25.17-12.184-25.17-26.345c0-14.557,11.799-26.368,26.368-26.368
		c1.311,0,2.599,0.09,3.865,0.283"/>
	<path style="fill:#E0B394;" d="M379.954,255.267c14.015-0.622,25.181-12.184,25.181-26.345c0-14.557-11.811-26.368-26.379-26.368
		c-1.311,0-2.611,0.102-3.865,0.283"/>
	<path style="fill:#E0B394;" d="M170.292,274.515c-0.78,13.19,3.515,26.164,12.014,36.28l48.489,59.585
		c2.532,3.018,5.402,5.549,8.51,7.572c-5.832-2.034-11.438-4.95-16.625-8.714l-46.395-33.703
		c-24.514-17.812-37.772-47.265-34.856-77.431l8.036-83.274c5.493-56.793,52.803-100.261,109.687-101.086
		c-35.037,0.848-74.71,33.872-76.779,69.045L170.292,274.515z"/>
</g>
<path style="fill:#4D4D4D;" d="M321.224,134.368c-5.222,16.772-30.956,29.51-61.902,29.51c-30.572,0-56.058-12.432-61.698-28.899
	C238.018,125.982,280.728,125.779,321.224,134.368z"/>
<g>
	<path style="fill:#666666;" d="M336.03,102.768c13.438,12.195,23.915,27.645,30.165,45.197
		c-14.512-5.809-29.578-10.33-44.971-13.596c-40.495-8.59-83.206-8.386-123.6,0.61c-14.421,3.21-28.549,7.538-42.168,12.986
		c15.54-43.604,57.155-74.255,105.37-74.255C289.634,73.71,316.093,84.651,336.03,102.768z"/>
	<path style="fill:#666666;" d="M490.312,286.905L490.312,286.905c-8.976-6.758-21.732-4.958-28.488,4.019L349.673,439.916
		c-6.758,8.976-4.957,21.732,4.019,28.488l0,0c8.976,6.758,21.732,4.957,28.488-4.019l112.151-148.992
		C501.089,306.417,499.29,293.661,490.312,286.905z"/>
	<path style="fill:#666666;" d="M445.498,449.803l-33.41-25.149l-17.672,23.478l33.41,25.149c6.483,4.88,15.695,3.581,20.574-2.902
		l0,0C453.281,463.895,451.981,454.684,445.498,449.803z"/>
</g>
<rect x="47.593" y="328.417" style="fill:#FFFFFF;" width="49.729" height="16.953"/>
<path style="fill:#4D4D4D;" d="M210.512,252.267c-4.681,0-8.477-3.795-8.477-8.477v-13.558c0-4.681,3.795-8.477,8.477-8.477
	c4.681,0,8.477,3.795,8.477,8.477v13.558C218.988,248.472,215.193,252.267,210.512,252.267z"/>
<g>
	<path style="fill:#666666;" d="M291.758,207.629c0,0,0.023-0.225,0.098-0.611c0.087-0.374,0.175-0.965,0.365-1.634
		c0.085-0.346,0.194-0.706,0.32-1.103c0.164-0.402,0.384-0.807,0.618-1.266c0.232-0.461,0.524-0.917,0.832-1.429
		c0.31-0.52,0.679-0.914,1.058-1.416c0.384-0.483,0.817-0.949,1.269-1.451c0.478-0.453,0.997-0.9,1.548-1.348
		c1.079-0.951,2.398-1.638,3.773-2.402c1.422-0.601,2.931-1.253,4.547-1.555c1.6-0.416,3.279-0.514,4.953-0.592
		c1.674,0.077,3.353,0.166,4.955,0.58c1.617,0.298,3.127,0.954,4.55,1.551c1.375,0.763,2.696,1.449,3.776,2.401
		c0.55,0.45,1.07,0.897,1.549,1.348c0.452,0.503,0.883,0.974,1.269,1.453c0.373,0.5,0.761,0.91,1.044,1.409
		c0.285,0.497,0.561,0.943,0.784,1.394c0.223,0.452,0.439,0.85,0.601,1.251c0.148,0.418,0.279,0.797,0.376,1.155
		c0.215,0.693,0.304,1.288,0.387,1.661c0.072,0.385,0.088,0.605,0.088,0.605s-0.234-0.006-0.63-0.044
		c-0.384-0.05-0.981-0.075-1.64-0.171c-0.341-0.035-0.689-0.098-1.073-0.149c-0.408-0.019-0.81-0.076-1.248-0.11
		c-0.858-0.09-1.753-0.225-2.737-0.263c-0.484-0.032-0.953-0.102-1.443-0.142c-0.507-0.007-1.008-0.033-1.505-0.07
		c-0.974-0.127-2.033-0.052-3.017-0.175c-1.034,0.037-2.024-0.089-3.049-0.058c-1.008-0.076-2.028,0.005-3.039-0.067
		c-1.012,0.069-2.031-0.019-3.041,0.054c-1.026-0.036-2.016,0.095-3.053,0.053c-0.984,0.122-2.046,0.046-3.02,0.174
		c-0.497,0.037-0.998,0.064-1.507,0.07c-0.491,0.041-0.957,0.115-1.443,0.145c-1.004,0.054-1.838,0.149-2.675,0.222
		c-0.44,0.034-0.851,0.066-1.232,0.094c-0.406,0.073-0.776,0.155-1.129,0.201c-0.684,0.121-1.282,0.149-1.661,0.198
		C291.984,207.629,291.758,207.629,291.758,207.629z"/>
	<path style="fill:#666666;" d="M191.131,207.629c0,0,0.023-0.225,0.098-0.611c0.087-0.374,0.175-0.965,0.365-1.634
		c0.085-0.346,0.194-0.706,0.32-1.103c0.164-0.402,0.384-0.807,0.618-1.266c0.232-0.461,0.524-0.917,0.832-1.429
		c0.31-0.52,0.679-0.914,1.058-1.416c0.384-0.483,0.817-0.949,1.269-1.451c0.478-0.453,0.997-0.9,1.548-1.348
		c1.079-0.951,2.398-1.638,3.773-2.402c1.422-0.601,2.931-1.253,4.547-1.555c1.6-0.416,3.279-0.514,4.953-0.592
		c1.674,0.077,3.353,0.166,4.955,0.58c1.617,0.298,3.127,0.954,4.55,1.551c1.375,0.763,2.696,1.449,3.776,2.401
		c0.55,0.45,1.07,0.897,1.55,1.348c0.452,0.503,0.883,0.974,1.269,1.453c0.373,0.5,0.761,0.91,1.044,1.409
		c0.285,0.497,0.561,0.943,0.784,1.394c0.223,0.452,0.439,0.85,0.601,1.251c0.148,0.418,0.279,0.797,0.376,1.155
		c0.215,0.693,0.304,1.288,0.387,1.661c0.072,0.385,0.088,0.605,0.088,0.605s-0.234-0.006-0.63-0.044
		c-0.384-0.05-0.981-0.075-1.64-0.171c-0.341-0.035-0.689-0.098-1.073-0.149c-0.408-0.019-0.81-0.076-1.248-0.11
		c-0.858-0.09-1.753-0.225-2.737-0.263c-0.484-0.032-0.953-0.102-1.443-0.142c-0.507-0.007-1.008-0.033-1.505-0.07
		c-0.974-0.127-2.033-0.052-3.017-0.175c-1.034,0.037-2.024-0.089-3.049-0.058c-1.008-0.076-2.028,0.005-3.039-0.067
		c-1.012,0.069-2.031-0.019-3.041,0.054c-1.026-0.036-2.016,0.095-3.053,0.053c-0.984,0.122-2.046,0.046-3.02,0.174
		c-0.497,0.037-0.998,0.064-1.507,0.07c-0.491,0.041-0.957,0.115-1.443,0.145c-1.004,0.054-1.838,0.149-2.675,0.222
		c-0.44,0.034-0.851,0.066-1.232,0.094c-0.406,0.073-0.776,0.155-1.129,0.201c-0.684,0.121-1.282,0.149-1.661,0.198
		C191.357,207.629,191.131,207.629,191.131,207.629z"/>
</g>
<path style="fill:#4D4D4D;" d="M311.138,252.267c-4.681,0-8.477-3.795-8.477-8.477v-13.558c0-4.681,3.795-8.477,8.477-8.477
	s8.477,3.795,8.477,8.477v13.558C319.614,248.472,315.819,252.267,311.138,252.267z"/>
<path style="fill:#E0B394;" d="M273.822,217.801v40.122c0,7.178-5.819,12.997-12.997,12.997l0,0
	c-7.178,0-12.997-5.819-12.997-12.997v-40.122"/>
<path style="fill:#C49270;" d="M278.342,311.97h-35.037c-3.122,0-5.651-2.531-5.651-5.651c0-3.121,2.529-5.651,5.651-5.651h35.037
	c3.122,0,5.651,2.531,5.651,5.651C283.993,309.439,281.464,311.97,278.342,311.97z"/>
</svg>