<svg
  width="70"
  height="70"
  viewBox="0 0 670 508"
  fill="none"
  xmlns="http://www.w3.org/2000/svg"
>
  <g>
    <path
      d="M244.81 350.718C224.515 350.718 208.06 334.226 208.06 313.885C208.06 293.544 224.542 278.184 244.81 277.051C303.187 273.792 342.896 264.546 355.657 206C364.257 166.551 399.408 172.15 419.382 175.76C439.355 179.406 431.601 199.167 427.981 219.186C412.133 306.463 367.5 347.458 244.81 350.718Z"
      fill="white"
    />
    <path
      d="M68.6214 313.415C65.7366 320.975 62.4015 326.712 58.4784 332.753C54.5829 338.628 50.1086 344.097 45.0555 348.922C35.0503 358.628 22.0041 365.175 9.1875 365.875C20.9567 360.553 29.1152 351.05 34.0581 340.598C36.5571 335.349 38.3854 329.834 39.6441 324.226C40.866 318.765 41.748 312.568 41.6286 307.844C41.4356 300.017 47.5913 293.516 55.4006 293.323C63.21 293.129 69.6964 299.299 69.8893 307.117C69.9353 309.004 69.6137 310.809 68.9889 312.476L68.6214 313.415Z"
      fill="white"
    />
    <path
      d="M55.125 338.25C55.125 353.499 67.4638 365.875 82.6875 365.875H284.812C300.027 365.875 312.375 355.028 314.672 338.25H55.125Z"
      fill="white"
    />
    <path
      d="M385.875 218.542C396.023 218.542 404.25 210.296 404.25 200.125C404.25 189.954 396.023 181.708 385.875 181.708C375.727 181.708 367.5 189.954 367.5 200.125C367.5 210.296 375.727 218.542 385.875 218.542Z"
      fill="#FDFDFD"
    />
    <path
      d="M220.5 319.833C220.5 319.833 303.188 319.833 303.188 329.042C303.188 356.667 275.625 393.5 275.625 393.5"
      fill="#FDFDFD"
    />
    <path
      d="M220.5 319.833C220.5 319.833 303.188 319.833 303.188 329.042C303.188 356.667 275.625 393.5 275.625 393.5"
      stroke="white"
      stroke-width="41.6667"
      stroke-linecap="round"
    />
    <path
      d="M82.6875 319.833L64.3125 356.667C64.3125 356.667 73.5 393.5 137.812 393.5"
      fill="#FDFDFD"
    />
    <path
      d="M82.6875 319.833L64.3125 356.667C64.3125 356.667 73.5 393.5 137.812 393.5"
      stroke="white"
      stroke-width="41.6667"
      stroke-linecap="round"
    />
    <path
      d="M220.5 338.25L226.922 336.114C267.356 318.986 301.267 292.107 324.484 258.985C306.311 198.311 250.203 154.083 183.75 154.083C102.569 154.083 36.75 220.052 36.75 301.417V310.625L91.875 338.25H220.5Z"
      fill="#795548"
    />
    <path
      d="M183.75 154.083C115.983 154.083 59.0665 200.125 42.0696 262.64L82.6875 283L137.813 292.208H192.938L238.875 273.792L275.625 246.167L304.391 217.335C277.848 179.121 233.739 154.083 183.75 154.083Z"
      fill="#8D6E63"
    />
    <path
      d="M298.805 209.913L276.139 232.63L231.24 180.143L238.122 164.627C232.444 162.352 226.619 160.345 220.601 158.789L213.003 175.916L172.008 208.781L123.838 200.733L102.073 178.918C96.9281 182.371 92.0863 186.22 87.419 190.281L108.238 211.147L78.5623 270.642L44.7707 253.699C42.7586 259.583 40.9762 265.569 39.7175 271.766L78.5715 291.232C79.0125 291.453 79.481 291.416 79.9312 291.564C80.363 291.711 80.7213 292.015 81.1715 292.089L136.297 301.297C136.802 301.371 137.307 301.417 137.812 301.417H192.937C194.095 301.417 195.253 301.205 196.355 300.763L242.293 282.346C243.046 282.042 243.744 281.646 244.397 281.158L281.147 253.533C281.33 253.395 281.413 253.202 281.578 253.055C281.753 252.898 281.974 252.843 282.139 252.677L309.499 225.255C306.238 219.905 302.664 214.794 298.805 209.913ZM138.575 283L96.4687 275.965L124.619 219.527L167.111 226.627L181.168 283H138.575ZM234.336 265.698L199.304 279.74L184.917 222.032L219.315 194.453L262.276 244.693L234.336 265.698Z"
      fill="#FEFEFE"
    />
    <path
      d="M260.199 299.216L250.24 276.766L273.365 259.381L295.259 292.273C299.88 288 304.244 283.497 308.433 278.875L287.458 247.336L309.481 225.264C306.238 219.914 302.673 214.794 298.814 209.913L269.598 239.196L234.345 265.688L191.164 283H138.575L85.5723 274.151L44.789 253.708C42.7769 259.602 41.0037 265.578 39.7358 271.766L71.9932 287.936L63.0445 323.802L81.0612 332.826L89.771 293.516L128.625 300.008V338.25H147V301.417H184.715L188.794 338.25H207.288L202.842 298.157L234.061 285.643L251.131 324.134C256.561 321.095 261.853 317.9 266.97 314.493L260.199 299.216Z"
      fill="white"
    />
    <path
      d="M619.35 325.776C620.844 325.776 622.327 325.348 623.448 324.499C639.59 312.192 648.844 294.291 648.844 275.38C648.844 256.474 639.585 238.572 623.454 226.266C621.297 224.622 617.703 224.56 615.45 226.13C613.192 227.704 613.107 230.312 615.263 231.955C629.413 242.746 637.53 258.575 637.53 275.38C637.53 292.19 629.413 308.019 615.258 318.809C613.101 320.453 613.186 323.061 615.445 324.635C616.537 325.401 617.946 325.776 619.35 325.776Z"
      fill="#FBFBFB"
    />
    <path
      d="M600.531 313.066C601.957 313.066 603.383 312.674 604.481 311.896C617.075 302.947 624.297 289.644 624.297 275.388C624.297 261.129 617.075 247.826 604.481 238.877C602.246 237.291 598.668 237.32 596.478 238.951C594.293 240.583 594.338 243.187 596.58 244.777C607 252.181 612.977 263.342 612.977 275.393C612.977 287.444 606.994 298.601 596.58 306.004C594.338 307.595 594.299 310.202 596.478 311.83C597.587 312.654 599.059 313.066 600.531 313.066Z"
      fill="#FBFBFB"
    />
    <path
      d="M578.275 292.832C575.876 294.291 575.564 296.891 577.562 298.638C578.683 299.61 580.29 300.113 581.915 300.113C583.194 300.113 584.479 299.799 585.543 299.157C594.44 293.743 599.755 284.852 599.755 275.384C599.755 265.772 594.316 256.811 585.209 251.406C582.786 249.964 579.221 250.244 577.245 251.999C575.27 253.763 575.638 256.358 578.06 257.796C584.558 261.652 588.441 268.228 588.441 275.388C588.429 282.446 584.632 288.968 578.275 292.832Z"
      fill="#FBFBFB"
    />
    <path
      d="M544.01 222.648L497.581 247.92H473.384C470.254 247.92 467.724 249.762 467.724 252.04V298.736C467.724 301.015 470.254 302.856 473.384 302.856H497.581L544.01 328.129C545.006 328.672 546.2 328.948 547.4 328.948C548.261 328.948 549.138 328.804 549.936 328.516C551.849 327.815 553.06 326.39 553.06 324.828V225.948C553.06 224.387 551.849 222.961 549.936 222.261C548.023 221.573 545.719 221.717 544.01 222.648ZM541.74 316.605L502.856 295.436C501.877 294.905 500.688 294.616 499.466 294.616H479.044V256.16H499.466C500.688 256.16 501.877 255.872 502.856 255.341L541.74 234.172V316.605Z"
      fill="white"
    />
  </g>
  <defs>
    <clipPath id="25">
      <rect width="670" height="508" fill="white" />
    </clipPath>
  </defs>
</svg>
