<svg xmlns="http://www.w3.org/2000/svg" viewBox="0 0 94 73" width="32px" height="32px" preserveAspectRatio="xMidYMid meet" style="minWidth: 24px; minHeight: 24px; transform: translate3d(0px, 0px, 0px);"><defs><clipPath id="__lottie_element_671"><rect width="94" height="73" x="0" y="0"></rect></clipPath><clipPath id="__lottie_element_673"><path d="M0,0 L1000,0 L1000,1038 L0,1038z"></path></clipPath><clipPath id="__lottie_element_677"><path d="M0,0 L1338,0 L1338,738 L0,738z"></path></clipPath></defs><g clip-path="url(#__lottie_element_671)"><g clip-path="url(#__lottie_element_673)" transform="matrix(0.26499998569488525,0,0,0.26499998569488525,-84.5,-101.53498840332031)" opacity="1" style="display: block;"><g transform="matrix(1.3600000143051147,0,0,1.3600000143051147,516.219970703125,522.4000244140625)" opacity="0.9069389991639046" style="display: block;"><path stroke-linecap="round" stroke-linejoin="miter" fill-opacity="0" stroke-miterlimit="4" stroke="currentColor" stroke-opacity="1" stroke-width="22.485589415376445" d=" M48.88100051879883,-88.13400268554688 C79.822998046875,-70.9219970703125 100.77899932861328,-37.88800048828125 100.77899932861328,0 C100.77899932861328,37.9109992980957 79.7979965209961,70.96199798583984 48.82500076293945,88.16500091552734"></path></g><g transform="matrix(1.3600000143051147,0,0,1.3600000143051147,516.219970703125,522.4000244140625)" opacity="1" style="display: block;"><path stroke-linecap="round" stroke-linejoin="miter" fill-opacity="0" stroke-miterlimit="4" stroke="currentColor" stroke-opacity="1" stroke-width="20.500305987715482" d=" M24.131000518798828,-42.808998107910156 C39.055999755859375,-34.37099838256836 49.14099884033203,-18.354000091552734 49.14099884033203,0 C49.14099884033203,18.386999130249023 39.02000045776367,34.42900085449219 24.049999237060547,42.854000091552734"></path></g><g clip-path="url(#__lottie_element_677)" transform="matrix(1.0370399951934814,0,0,0.9629600048065186,136.53640747070312,163.66775512695312)" opacity="1" style="display: block;"><g transform="matrix(1,0,0,1,260.93701171875,373.6780090332031)" opacity="1" style="display: block;"><g opacity="1" transform="matrix(6,0,0,6,0,0)"><path fill="currentColor" fill-opacity="1" d=" M-8.293000221252441,-11.675000190734863 C-8.293000221252441,-11.675000190734863 -0.12300000339746475,-11.675000190734863 -0.12300000339746475,-11.675000190734863 C2.9070000648498535,-11.675000190734863 5.367000102996826,-9.21500015258789 5.367000102996826,-6.184999942779541 C5.367000102996826,-6.184999942779541 5.367000102996826,6.425000190734863 5.367000102996826,6.425000190734863 C5.367000102996826,9.454999923706055 2.9070000648498535,11.914999961853027 -0.12300000339746475,11.914999961853027 C-0.12300000339746475,11.914999961853027 -8.293000221252441,11.914999961853027 -8.293000221252441,11.914999961853027 C-11.322999954223633,11.914999961853027 -13.782999992370605,9.454999923706055 -13.782999992370605,6.425000190734863 C-13.782999992370605,6.425000190734863 -13.782999992370605,-6.184999942779541 -13.782999992370605,-6.184999942779541 C-13.782999992370605,-9.21500015258789 -11.322999954223633,-11.675000190734863 -8.293000221252441,-11.675000190734863z M-4.980999946594238,-11.656999588012695 C-4.980999946594238,-11.656999588012695 10.218999862670898,-22.32699966430664 10.218999862670898,-22.32699966430664 C11.24899959564209,-23.047000885009766 12.659000396728516,-22.797000885009766 13.369000434875488,-21.777000427246094 C13.638999938964844,-21.39699935913086 13.779000282287598,-20.937000274658203 13.779000282287598,-20.476999282836914 C13.779000282287598,-20.476999282836914 13.779000282287598,20.472999572753906 13.779000282287598,20.472999572753906 C13.779000282287598,21.722999572753906 12.769000053405762,22.732999801635742 11.519000053405762,22.732999801635742 C11.059000015258789,22.732999801635742 10.609000205993652,22.593000411987305 10.218999862670898,22.322999954223633 C10.218999862670898,22.322999954223633 -4.980999946594238,11.652999877929688 -4.980999946594238,11.652999877929688 C-5.580999851226807,11.232999801635742 -5.940999984741211,10.543000221252441 -5.940999984741211,9.803000450134277 C-5.940999984741211,9.803000450134277 -5.940999984741211,-9.807000160217285 -5.940999984741211,-9.807000160217285 C-5.940999984741211,-10.536999702453613 -5.580999851226807,-11.22700023651123 -4.980999946594238,-11.656999588012695z"></path><g opacity="1" transform="matrix(1,0,0,1,0,0)"></g></g></g></g></g></g></svg>
